<?xml version="1.0" encoding="UTF-8"?>
<svg version="1.1" viewBox="0 0 2048 535" width="440" height="115" xmlns="http://www.w3.org/2000/svg">
<path transform="translate(0)" d="m0 0h2048v535h-2048z" fill="#FFFFFF00"/>
<path transform="translate(1490,87)" d="m0 0h18l18 3 15 5 16 8 11 7 12 11 7 7 11 16 8 16 6 18 3 18v19l-4 20-5 15-8 15-10 13-7 8-8 7-12 9-16 8-18 6-13 3h-29l-18-4-14-5-16-8-14-11-13-13-10-14-8-15-6-18-3-17v-23l4-20 6-16 9-16 9-12 14-14 13-9 15-8 18-6z" fill="#4E4C50"/>
<path transform="translate(262,6)" d="m0 0 4 2 12 15 10 14 10 13 10 14 2 4v193l1 2 19 5 64 16 32 9 13 5 9 6 4 6 2 6-1 8-4 8-6 7-5-2-5-5-5-4-15-6-103-30v143l5-1 17-10 24-14 26-15 24-14 21-12 12-7 11-9 9-14 5-11 1-4v-19l7 2 10 8 8 9 7 14 2 10-1 13-4 12-7 12-7 8-11 9-26 16-22 14-18 11-22 14-26 16-19 12-21 13-19 12-26 16-4 2h-3l-1-178z" fill="#E5202E"/>
<path transform="translate(243,3)" d="m0 0h3v522h-3l-8-11-14-19-12-16-9-13-2-7v-187l-1-5-64-16-51-13-13-5-9-6-5-7-1-10 3-9 6-8 5-1 5 6 8 5 21 7 82 24 14 5v-144l-12 6-21 12-22 13-14 8-41 24-13 7-11 8-5 5-6 7-8 15-2 7v19l-8-4-11-9-8-10-5-12-1-5v-13l3-12 7-12 13-13 22-14 82-52 82-52 19-12z" fill="#E5202E"/>
<path transform="translate(1197,102)" d="m0 0h93l14 2 13 4 12 7 10 10 7 11 3 8 1 6v11l-2 10-6 12-11 12-4 4 12 9 9 10 7 12 3 9 1 6v12l-4 16-4 8-11 12-10 7-11 5-14 4-9 1h-84l-8-3-5-6-2-5z" fill="#4E4C50"/>
<path transform="translate(1655,101)" d="m0 0h93l15 3 12 5 11 7 6 5 8 11 6 12 3 11v18l-4 15-6 11-8 10-7 7-14 8-5 3 12 18 13 18 13 19 12 16 7 11v1h-42l-7-8-13-19-14-20-22-32-2-1-30-1-1 79h-22l-7-3-6-7-1-5z" fill="#4E4C50"/>
<path transform="translate(1868,102)" d="m0 0h42l6 9 9 17 14 24 14 25 14 24 12 21 13 22 2 2 1-144h37v208h-43l-6-9-13-23-15-27-12-21-28-50-8-14-2 144h-19l-9-3-7-6-2-5-1-193z" fill="#4E4C50"/>
<path transform="translate(1496,124)" d="m0 0 18 1 12 3 14 7 12 9 7 7 9 14 5 11 4 15v19l-4 16-8 17-8 10-9 9-14 9-12 5-14 3h-19l-17-4-16-8-9-7-8-8-9-14-6-14-3-15v-18l4-16 7-14 9-12 11-10 10-6 11-5 12-3z" fill="#FEFEFE"/>
<path transform="translate(1007,102)" d="m0 0h129v34l-107 1v48h103v33l-3 1h-101v16l1 40h110v35h-129l-9-3-6-7-1-3v-194z" fill="#4E4C50"/>
<path transform="translate(893,101)" d="m0 0h35v207h-35l-1-90-89-1v93h-17l-9-2-6-4-3-4-1-8v-189l1-1h34l1 1 1 79 1 1h87z" fill="#4E4C50"/>
<path transform="translate(641,102)" d="m0 0h78v34l-63 1-1 173h-18l-8-2-5-3-4-5-1-4v-159l-64-1v-33z" fill="#4E4C50"/>
<path transform="translate(1231,219)" d="m0 0h64l11 4 9 8 4 9 1 10-2 9-6 8-6 5-10 4-8 1h-54l-3-2z" fill="#FEFEFE"/>
<path transform="translate(1690,134)" d="m0 0h46l13 2 10 4 8 7 4 9 1 10-3 12-7 8-10 5-14 3h-48l-1-1-1-49 1-9z" fill="#FEFEFE"/>
<path transform="translate(64,192)" d="m0 0 5 1 4 5 8 5 21 7 82 24 14 5 1 1-1 27-65-16-51-13-13-5-9-6-5-7-1-10 3-9 6-8z" fill="#E5202E"/>
<path transform="translate(309,261)" d="m0 0 5 3 71 18 35 9 17 6 10 6 5 7 2 6-1 8-4 8-6 7-5-2-5-5-5-4-15-6-103-30 2-7-2-2z" fill="#F03A48"/>
<path transform="translate(1234,136)" d="m0 0h53l11 2 8 6 5 7 1 9-3 10-6 8-5 3-10 2-12 1h-41l-2-1v-46z" fill="#FEFEFE"/>
<path transform="translate(626,374)" d="m0 0h8l10 4 7 9 3 10v15l-4 10-6 7-7 4-10 1-9-3-7-6-5-10-2-10 1-11 4-9 7-7 6-3z" fill="#FEFEFE"/>
<path transform="translate(1288,374)" d="m0 0h10l10 5 5 6 4 9 1 4v10l-3 10-6 9-5 4-5 2h-11l-8-3-7-7-4-9-1-5v-14l4-10 4-5 8-5z" fill="#FEFEFE"/>
<path transform="translate(64,192)" d="m0 0 5 1 4 5 8 5 21 7 82 24 14 5 1 1-1 27-41-10 1-2h13l-7-3-8-2-14-4-15-2-4-2v-2l-2-1h2l1-4h2l-1-4 1-3-2-1v-4l-6-2-5-4-14-5-19-6-9-6-4-3h-4l-2 5h-2l-1 4h-2l-1 3 1-6 6-9z" fill="#F03A48"/>
<path transform="translate(387,286)" d="m0 0h9l9 3 15 2 17 6 10 6 5 7 2 6-1 8-4 8-6 7-5-2-7-9-5-4-16-6-12-4-8-5-7-4-4-4-1-7 2-7z" fill="#E5202E"/>
<path transform="translate(692,377)" d="m0 0h28l8 4 3 6v8l-7 8-8 3h-24l-1-11v-17z" fill="#FEFEFE"/>
<path transform="translate(1355,377)" d="m0 0h28l8 4 4 8v6l-4 5-10 6h-26z" fill="#FEFEFE"/>
<path transform="translate(1523,375)" d="m0 0 3 4 14 34v2h-33l3-10 12-28z" fill="#FEFEFE"/>
<path transform="translate(1024,376)" d="m0 0 3 4 10 23 4 10v2h-33l3-10 9-22z" fill="#FEFEFE"/>
<path transform="translate(1793,376)" d="m0 0h2l10 23 6 14v2h-34l10-25z" fill="#FEFEFE"/>
<path transform="translate(262,110)" d="m0 0h1l1 50 1 362 3 5-5 1-1-178z" fill="#F03A48"/>
<path transform="translate(1581,371)" d="m0 0 4 2 10 14 25 40 3 3v-58h3v60l-5 1-5-5-14-23-15-23-3-5-1 56h-3v-53z" fill="#4E4C50"/>
<path transform="translate(1365,374)" d="m0 0h12l12 2 7 6 3 7-1 7-4 5-9 5-2 2 10 15 8 11-3 1-9-10-9-14-1-2-24-1v27l-3-1v-59zm-10 3v29h26l10-6 4-5-1-9-3-5-8-4z" fill="#4E4C50"/>
<path transform="translate(823,371)" d="m0 0h10l9 4 9 9 2 6-5-4-5-6-9-5h-10l-9 4-7 7-3 6-1 4v11l3 11 4 6 1 3 4 2 7 3h9l8-4 7-8 2-5v-7l-22-1v-2h25l1 1v29l-4-1 2-12-5 5-9 6-5 2h-11l-8-4-5-5-5-7-2-5-1-6v-10l3-10 5-8 7-6z" fill="#4E4C50"/>
<path transform="translate(695,374)" d="m0 0h17l11 1 6 3 4 5 2 6-1 7-6 7-6 3h-3l3 6 11 16 5 8-5-2-10-13-7-12-24-1v27h-3v-60zm-3 3-1 1v17l1 11h24l8-3 7-8v-8l-4-7-7-3z" fill="#4E4C50"/>
<path transform="translate(924,371)" d="m0 0 4 2 13 19 13 21 9 14 2 2 1-57h3l-1 61-5-1-6-7-25-40-4-6-2-1v55h-3v-61z" fill="#4E4C50"/>
<path transform="translate(1288,371)" d="m0 0h10l9 3 6 5 5 8 2 7v18l-4 10-9 10-7 3h-13l-8-3-7-6-5-8-2-8v-13l4-12 6-8 6-4zm0 3-8 3-6 5-5 9-1 4v14l3 10 4 6 7 6 6 2h11l8-4 6-7 4-9 1-5v-10l-4-11-4-6-5-4-7-3z" fill="#4E4C50"/>
<path transform="translate(624,371)" d="m0 0h11l10 4 7 7 4 9 1 5v13l-3 10-5 8-6 5-7 3h-13l-8-3-5-4-6-10-2-6-1-9 2-11 4-9 7-8zm2 3-8 3-8 7-3 4-3 12 1 12 4 10 6 7 8 4 10 1 8-3 8-7 4-8 1-4v-15l-3-10-7-9-10-4z" fill="#525054"/>
<path transform="translate(1240,371)" d="m0 0v3l-11 11-7 8-3 4 2 4 9 11 11 13 6 7v2l-5-2-14-15-9-11-4-5-8 7-5 2-1 25h-3v-62h3v35l6-4 13-13 7-8 11-11z" fill="#4E4C50"/>
<path transform="translate(1429,374)" d="m0 0h42l-1 2-38 1v25h38l-4 2h-21l-13-1v29l15-1h23v3h-41z" fill="#4E4C50"/>
<path transform="translate(244,133)" d="m0 0h1v389l-3-1 1-3z" fill="#F03A48"/>
<path transform="translate(1990,374)" d="m0 0h42v2l-39 1v24l38 1v1l-38 1v27h39l-1 3h-41z" fill="#4E4C50"/>
<path transform="translate(1024,373)" d="m0 0h2l7 14 13 32 6 14-1 3-4-6-5-12h-35l-7 16-3 1 3-9 11-26 8-19zm0 3-8 16-8 21v2h33l-3-9-10-24-3-6z" fill="#4E4C50"/>
<path transform="translate(1522,373)" d="m0 0 4 2 6 13 13 32 6 13-1 3-4-7-5-11-35-1-7 15-2 3h-2l2-6 9-20 11-27zm1 2-11 25-5 13v2h33l-3-10-11-26z" fill="#4E4C50"/>
<path transform="translate(1793,373)" d="m0 0 3 1 11 25 13 31 2 5-3-1-7-16-29-1-7-1-3 9-5 10-3-1 9-19 11-27 7-14zm0 3-11 26-5 13h34l-3-9-10-23-3-7z" fill="#4E4C50"/>
<path transform="translate(362,303)" d="m0 0 11 1 13 4 6 1 8 5 24 8 6 4 5 6-16-8-47-14-11-3z" fill="#EF3947"/>
<path transform="translate(1705,374)" d="m0 0h49l-1 2h-21l-1 59h-3v-59h-22z" fill="#4E4C50"/>
<path transform="translate(1914,374)" d="m0 0h48v2h-23v59h-3v-58l-22-1z" fill="#4E4C50"/>
<path transform="translate(69,232)" d="m0 0 9 1 28 7 18 5 8 1 10 4 7 1-1 3-11-2-55-14-13-5z" fill="#F03A48"/>
<path transform="translate(614,378)" d="m0 0 2 1-7 7-3 8-1 11 2 10 5 10 8 6 7 2 10-1 4-1v2l-5 2h-13l-8-3-5-4-6-10-2-6-1-9 2-11 4-9 4-3z" fill="#4E4C50"/>
<path transform="translate(1870,364)" d="m0 0 11 1 6 3 6 7 2 4-1 4-6-10-8-5-10-1-8 3-5 6v9l6 8 1 2-4 1-5-4-3-8 2-9 6-7z" fill="#4E4C50"/>
<path transform="translate(1080,372)" d="m0 0h3v59l25-1h13l-1 2h-40z" fill="#4E4C50"/>
<path transform="translate(1887,405)" d="m0 0 3 4 2 4v8l-6 8-9 4-3 1h-9l-10-4-7-8-2-5v-4h2l5 10 7 6 7 2 10-1 8-4 4-5 1-5-3-8z" fill="#4E4C50"/>
<path transform="translate(885,373)" d="m0 0h3v62h-3z" fill="#4E4C50"/>
<path transform="translate(766,373)" d="m0 0h2l1 62h-3z" fill="#4E4C50"/>
<path transform="translate(362,303)" d="m0 0 11 1 15 5-1 2-8 1-18-5z" fill="#E62331"/>
<path transform="translate(362,303)" d="m0 0 11 1 4 3h-16z" fill="#E5212F"/>
<path transform="translate(496,338)" d="m0 0 2 4 1 13-1 6h-1l-1-17-1-4z" fill="#F03A48"/>
<path transform="translate(367,306)" d="m0 0 10 1 2 2-7 1-7-2z" fill="#F03A48"/>
<path transform="translate(616,374)" d="m0 0 3 1-1 3-5 2h-3l4-5z" fill="#828083"/>
<path transform="translate(465,305)" d="m0 0 7 2 2 3h-9z" fill="#F03A48"/>
</svg>
